<svg xmlns="http://www.w3.org/2000/svg" viewBox="0 0 121.33 20"><defs><style>.cls-1{fill:#fff;fill-rule:evenodd;}.cls-2{fill:red;}</style></defs><g id="Capa_2" data-name="Capa 2"><g id="Capa_1-2" data-name="Capa 1"><path class="cls-1" d="M0,.67V20H10.67V17.56h-8V.67Z"/><path class="cls-2" d="M121.33,18.67A1.33,1.33,0,1,1,120,17.33,1.33,1.33,0,0,1,121.33,18.67Z"/><path class="cls-1" d="M24.22,17.75v2h2.45V6.94H24.22V8.86a5.12,5.12,0,0,0-4.45-2.19,6.35,6.35,0,0,0-6.44,6.65A6.39,6.39,0,0,0,19.77,20,5.14,5.14,0,0,0,24.22,17.75ZM20,9.1a4.11,4.11,0,0,1,4.21,4.19,4.17,4.17,0,1,1-8.34,0A4,4,0,0,1,20,9.1Z"/><path class="cls-1" d="M45.75,20,50.67,6.67H47.91L44.58,16,41.25,6.67h-2.5L35.42,16,32.09,6.67H29.33L34.4,20h2.1L40,10.21,43.61,20Z"/><path class="cls-1" d="M67.33,20l-4.92-7.32c3.45-.31,4.82-3.09,4.82-5.95,0-3-1.58-6.06-5.47-6.06H54.67V20h2.51V12.76h2.36L64.31,20ZM57.18,3.11h4.5c2.15,0,3,1.85,3,3.62s-.83,3.59-3.08,3.59h-4.4Z"/><path class="cls-1" d="M81.56,17.75v2H84V6.94H81.56V8.86A5.14,5.14,0,0,0,77.1,6.67a6.34,6.34,0,0,0-6.43,6.65A6.39,6.39,0,0,0,77.1,20,5.16,5.16,0,0,0,81.56,17.75ZM77.32,9.1a4.1,4.1,0,0,1,4.21,4.19,4.17,4.17,0,1,1-8.34,0A4,4,0,0,1,77.32,9.1Z"/><path class="cls-1" d="M91.29,13a3.52,3.52,0,0,1,3.79-3.81c1.85,0,3,1.29,3,3.47V20h2.62V12.45c0-3.66-1.85-5.78-5.18-5.78a4.77,4.77,0,0,0-4.2,2.23V7H88.67V20h2.62Z"/><path class="cls-1" d="M107.22,13.68l6,6.32h3.41l-7-7.35,5.68-5.6-2-1.52-6,6V0h-2.55V20h2.55Z"/></g></g></svg>